# xmcd
#
# Track frame offsets:
# 150
# 16296
# 42212
# 62375
# 88165
# 112267
# 132865
# 152832
# 168273
# 183057
# 207105
#
# Disc length: 3325 seconds
#
# Revision: 2
# Processed by: cddbd v1.5PL3 Copyright (c) Steve Scherf et al.
# Submitted via: Axialis_AX_CDPlayer 2.6
#
DISCID=880cfb0b
DTITLE=Jimmy Thackery and the Drivers - True Stories
DYEAR=2003
DGENRE=Blues
TTITLE0=Got It Going On
TTITLE1=Blues Man On Saturday Night
TTITLE2=Baby's Got The Blues
TTITLE3=I Think I Hear The Rain
TTITLE4=Snakes In My Mailbox
TTITLE5=Dancin' With The Dawg
TTITLE6=Too Tired
TTITLE7=Being Alone
TTITLE8=Puttin' Out Fires
TTITLE9=Crazy 'Bout A Saxophone
TTITLE10=The Messiah Will Come
EXTD=YEAR: 2003 ID3G:   0
EXTT0=
EXTT1=
EXTT2=
EXTT3=
EXTT4=
EXTT5=
EXTT6=
EXTT7=
EXTT8=
EXTT9=
EXTT10=
PLAYORDER=
